<svg viewBox="0 0 200 200" xmlns="http://www.w3.org/2000/svg">
<path d="M148.627 40.8668C148.05 42.5378 146.591 43.959 145.381 44.0551C144.171 44.1511 143.652 42.8643 144.247 41.1933C144.843 39.5224 146.283 38.1011 147.493 38.005C148.703 37.909 149.222 39.1958 148.627 40.8668Z" fill="#1A2EB2"/>
<path d="M78.5585 37.7511C76.9835 42.2646 73.027 46.1251 69.7427 46.3556C66.4584 46.5861 65.0755 43.1289 66.6505 38.6154C68.2254 34.1019 72.1819 30.2414 75.4662 30.0109C78.7505 29.7804 80.1334 33.2376 78.5585 37.7511Z" fill="#C9981D"/>
<path d="M30.4546 91.7521C27.4392 93.4999 25 97.7253 25 101.202C25 104.678 27.4584 106.08 30.493 104.332C33.5085 102.585 35.9477 98.3592 35.9477 94.8828C35.9477 91.4064 33.4893 90.0043 30.4546 91.7521Z" fill="#040506"/>
<path d="M57.2512 167.343L76.3528 173.622L133.657 86.6515C98.3358 45.8874 45.8332 89.3193 47.5406 109.595L52.8809 161.911C53.1376 164.425 54.8498 166.554 57.2512 167.343Z" fill="#161922"/>
<path d="M69.6159 165.556L65.676 104.899C63.0353 66.1078 112.949 46.8479 135.039 85.7978C141.355 90.924 147.483 96.6204 151.617 104.114C152.992 106.607 153.5 109.461 153.5 112.308V149.838C153.5 153.825 150.74 157.281 146.852 158.163L80.0242 173.328C74.9027 174.49 69.9563 170.797 69.6159 165.556Z" fill="#272C3A"/>
<path d="M118.184 128.909L92.0397 162.204L146.249 151.532L125.867 128.909H118.184Z" fill="#272C3A"/>
<path d="M118.184 128.909L125.334 129.656L145.182 151.746L146.249 151.532L125.867 128.909H118.184Z" fill="#040506"/>
<path d="M100.683 139.901L74.3254 112.903L77.7814 163.974C77.9147 165.944 80.4219 166.692 81.613 165.117L100.683 139.901Z" fill="#272C3A"/>
<path d="M74.3254 112.903L100.683 139.901L81.613 165.117C80.8782 166.089 79.6424 166.176 78.7722 165.638C78.8715 165.547 79.5743 165.413 79.661 165.298L99.2961 140.008L74.4322 113.97L74.3254 112.903Z" fill="#040506"/>
<path d="M150.518 147.258V115.144L137.819 135.312L148.64 147.952C149.285 148.705 150.518 148.249 150.518 147.258Z" fill="#272C3A"/>
<path d="M149.292 117.115V147.365C149.292 147.764 149.092 148.076 148.811 148.258C149.48 148.709 150.466 148.251 150.466 147.365V115.25L149.292 117.115Z" fill="#040506"/>
<path d="M88.7317 80.5689L91.1861 119.305L104.216 133.438C104.659 133.918 105.426 133.891 105.834 133.38L114.769 122.187H126.721L134.302 130.715C134.778 131.25 135.636 131.174 136.009 130.562L148.473 110.184C149.331 108.781 149.307 107.009 148.411 105.63L147.103 103.619V86.5448L88.7317 80.5689Z" fill="#2B3040"/>
<path d="M104.632 133.674C105.059 133.86 105.581 133.752 105.893 133.361L114.828 122.168H113.974L105.039 133.361C104.926 133.503 104.785 133.607 104.632 133.674Z" fill="#040506"/>
<path d="M134.73 130.966C135.198 131.17 135.778 131.017 136.068 130.544L148.532 110.165C149.39 108.762 149.365 106.99 148.469 105.611L147.103 103.512V104.152V104.793L147.615 105.611C148.512 106.99 148.536 108.762 147.678 110.165L135.214 130.544C135.094 130.741 134.923 130.882 134.73 130.966Z" fill="#040506"/>
<path d="M90.5458 118.772L91.1861 119.305L88.7352 80.7306L88.1981 80.6756L90.5458 118.772Z" fill="#040506"/>
<path d="M81.3628 87.3849L88.6248 87.9321L90.5456 118.772L74.7859 103.21C74.0104 102.445 73.5572 101.411 73.5191 100.322L73.3363 95.0947C73.1808 90.6468 76.9248 87.0505 81.3628 87.3849Z" fill="#040506"/>
<path d="M130.456 84.8374C117.304 72.0972 109.182 68.0466 91.8263 72.6722C101.734 72.9488 107.018 75.5366 116.05 83.6636L130.456 84.8374Z" fill="#161922"/>
</svg>
