<svg viewBox="0 0 24 24" xmlns="http://www.w3.org/2000/svg">
<path d="M8 6.5C8 7.32843 7.32843 8 6.5 8C5.67157 8 5 7.32843 5 6.5C5 5.67157 5.67157 5 6.5 5C7.32843 5 8 5.67157 8 6.5Z" />
<path fill-rule="evenodd" clip-rule="evenodd" d="M2 6.5C2 4.01472 4.01472 2 6.5 2H17.5C19.9853 2 22 4.01472 22 6.5C22 8.98528 19.9853 11 17.5 11H6.5C4.01472 11 2 8.98528 2 6.5ZM6.5 4H17.5C18.8807 4 20 5.11929 20 6.5C20 7.88071 18.8807 9 17.5 9H6.5C5.11929 9 4 7.88071 4 6.5C4 5.11929 5.11929 4 6.5 4Z" />
<path d="M17.5 19C18.3284 19 19 18.3284 19 17.5C19 16.6716 18.3284 16 17.5 16C16.6716 16 16 16.6716 16 17.5C16 18.3284 16.6716 19 17.5 19Z" />
<path fill-rule="evenodd" clip-rule="evenodd" d="M2 17.5C2 15.0147 4.01472 13 6.5 13H17.5C19.9853 13 22 15.0147 22 17.5C22 19.9853 19.9853 22 17.5 22H6.5C4.01472 22 2 19.9853 2 17.5ZM6.5 15H17.5C18.8807 15 20 16.1193 20 17.5C20 18.8807 18.8807 20 17.5 20H6.5C5.11929 20 4 18.8807 4 17.5C4 16.1193 5.11929 15 6.5 15Z" />
</svg>
