<svg viewBox="0 0 200 200" xmlns="http://www.w3.org/2000/svg">
<path d="M154.248 65.8668C154.824 67.5378 156.283 68.959 157.493 69.0551C158.703 69.1511 159.222 67.8643 158.627 66.1933C158.031 64.5224 156.591 63.1011 155.381 63.005C154.171 62.909 153.652 64.1958 154.248 65.8668Z" fill="#1A2EB2"/>
<path d="M34.4931 63.7521C37.5085 65.4999 39.9478 69.7253 39.9478 73.2017C39.9478 76.6781 37.4893 78.0802 34.4547 76.3324C31.4393 74.5846 29.0001 70.3592 29.0001 66.8828C29.0001 63.4064 31.4585 62.0043 34.4931 63.7521Z" fill="#161922"/>
<path d="M133.633 66.7157C132.83 63.7183 129.749 61.9395 126.751 62.7427C96.3482 65.8136 79.8401 70.16 51.3124 82.9565C48.315 83.7596 46.5362 86.8405 47.3393 89.8379L47.3984 90.0584C50.4693 120.461 54.8158 136.969 67.6122 165.497L67.6713 165.718C68.4744 168.715 71.5554 170.494 74.5527 169.691C104.956 166.62 121.464 162.273 149.992 149.477C152.989 148.674 154.768 145.593 153.965 142.595L153.906 142.375C150.835 111.972 146.488 95.4639 133.692 66.9362L133.633 66.7157Z" fill="#272C3A"/>
<path d="M133.38 128.834C132.557 126.624 130.469 124.787 126.997 123.219C122.911 121.375 119.968 120.739 117.735 121.22C114.946 121.82 113.746 123.969 112.476 126.244C112.346 126.476 112.214 126.712 112.078 126.951C112 127.089 111.858 127.259 111.451 127.346C110.268 127.601 106.877 127.219 97.4562 121.801C93.3706 119.45 90.2669 117.368 88.2313 115.613C86.2083 113.869 85.2353 112.416 85.6288 111.726C85.7638 111.489 85.8987 111.257 86.0315 111.028C87.1995 109.014 88.3026 107.112 87.8877 104.773C87.4471 102.289 85.4032 99.8638 81.2617 96.9093C78.0575 94.6188 75.352 93.7524 72.9904 94.2608C69.7859 94.9506 68.1362 98.0513 66.8109 100.543C66.5776 100.982 66.357 101.396 66.1372 101.783C64.4964 104.662 66.1221 109.731 70.4856 115.343C75.2121 121.422 82.6187 127.534 91.3408 132.553C106.863 141.483 119.438 143.13 125.49 141.828C127.936 141.301 129.663 140.258 130.486 138.812C130.708 138.421 130.952 138.017 131.211 137.59C132.709 135.117 134.573 132.039 133.38 128.834Z" fill="#161922"/>
<path d="M47.2348 87.391C46.0699 88.7511 45.5737 90.6437 46.0722 92.5042L46.1313 92.7246C49.2022 123.128 53.5487 139.636 66.3451 168.163L66.4042 168.384C67.2073 171.381 70.2883 173.16 73.2856 172.357C103.689 169.286 120.197 164.94 148.724 152.143C150.896 151.561 152.428 149.784 152.802 147.709C152.09 148.54 151.128 149.172 149.991 149.477C121.464 162.273 104.956 166.62 74.5526 169.691C71.5552 170.494 68.4743 168.715 67.6711 165.718L67.6121 165.497C54.8156 136.969 50.4692 120.461 47.3983 90.0584L47.3392 89.8379C47.1179 89.0122 47.0926 88.18 47.2348 87.391Z" fill="#161922"/>
<path d="M134.717 127.313C133.894 125.102 131.806 123.266 128.334 121.698C124.248 119.853 121.305 119.218 119.072 119.698C116.284 120.299 115.084 122.447 113.813 124.722C113.683 124.954 113.552 125.19 113.416 125.429C113.337 125.567 113.195 125.737 112.788 125.824C111.606 126.079 108.214 125.697 98.7936 120.279C94.708 117.928 91.6043 115.846 89.5687 114.091C87.5457 112.347 86.5727 110.895 86.9662 110.205C87.1012 109.967 87.2361 109.735 87.3689 109.506C88.5369 107.492 89.64 105.59 89.2252 103.251C88.7845 100.767 86.7406 98.342 82.5991 95.3876C79.3949 93.0971 76.6894 92.2307 74.3278 92.739C71.1233 93.4289 69.4736 96.5296 68.1483 99.0208C67.915 99.4601 67.6944 99.8746 67.4746 100.262C65.8338 103.14 67.4595 108.209 71.823 113.821C76.5495 119.9 83.9561 126.012 92.6782 131.031C108.2 139.961 120.775 141.609 126.827 140.306C129.273 139.779 131 138.737 131.823 137.29C132.045 136.9 132.29 136.496 132.549 136.068C134.046 133.595 135.91 130.517 134.717 127.313Z" fill="#2F3546"/>
<path d="M133.631 127.613C132.808 125.402 130.72 123.566 127.247 121.998C123.162 120.153 120.219 119.518 117.986 119.998C115.197 120.599 113.997 122.747 112.726 125.022C112.597 125.254 112.465 125.49 112.329 125.729C112.251 125.867 112.108 126.037 111.702 126.124C110.519 126.379 107.128 125.997 97.7069 120.579C93.6213 118.228 90.5176 116.146 88.482 114.391C86.459 112.647 85.486 111.195 85.8795 110.505C86.0146 110.267 86.1495 110.035 86.2822 109.806C87.4502 107.792 88.5533 105.89 88.1385 103.551C87.6978 101.067 85.6539 98.642 81.5124 95.6876C78.3082 93.3971 75.6027 92.5307 73.2412 93.039C70.0366 93.7289 68.3869 96.8296 67.0617 99.3208C66.8283 99.76 66.6077 100.175 66.3879 100.562C64.7472 103.44 66.3729 108.509 70.7363 114.121C75.4628 120.2 82.8694 126.312 91.5916 131.331C107.113 140.261 119.688 141.909 125.74 140.606C128.186 140.079 129.914 139.037 130.736 137.59C130.958 137.2 131.203 136.796 131.462 136.368C132.959 133.895 134.823 130.817 133.631 127.613Z" fill="#2F3546"/>
<path d="M93.6505 33.7511C95.2254 38.2646 99.182 42.1251 102.466 42.3556C105.751 42.5861 107.133 39.1289 105.559 34.6154C103.984 30.1019 100.027 26.2414 96.7427 26.0109C93.4584 25.7804 92.0756 29.2376 93.6505 33.7511Z" fill="#C9981D"/>
</svg>
