<svg viewBox="0 0 316 316" xmlns="http://www.w3.org/2000/svg">
<g filter="url(#filter0_f_5797_2623)">
<circle cx="157.225" cy="116" r="75" fill="#F1FBFF"/>
</g>
<path d="M94.9223 84.6293C95.4985 86.3002 96.9582 87.7215 98.1682 87.8175C99.3782 87.9136 99.8967 86.6267 99.3013 84.9558C98.7059 83.2848 97.2655 81.8635 96.0554 81.7675C94.8454 81.6715 94.3269 82.9583 94.9223 84.6293Z" fill="#6B89F6"/>
<path d="M113.168 56.5146C116.183 58.2624 118.623 62.4878 118.623 65.9642C118.623 69.4405 116.164 70.8426 113.13 69.0948C110.114 67.347 107.675 63.1216 107.675 59.6452C107.675 56.1689 110.133 54.7668 113.168 56.5146Z" fill="#ADC8D8"/>
<g filter="url(#filter1_d_5797_2623)">
<path d="M205.036 71.6234C204.17 72.0089 203.523 72.6175 203.124 73.343C203.011 73.1057 202.891 72.871 202.752 72.6384C200.263 68.49 194.655 66.718 190.234 68.6829C188.28 69.5514 186.886 71.008 186.151 72.7202C185.093 71.7177 183.439 71.375 182.082 71.9782C181.575 72.2035 181.169 72.5378 180.876 72.9291C180.765 72.6371 180.631 72.342 180.46 72.0566C178.947 69.5358 175.544 68.4646 172.863 69.656C171.044 70.4645 170.028 72.1007 170.026 73.8558C165.254 70.4337 158.723 69.4875 153.255 71.9179C146.012 75.1368 143.295 83.0919 146.936 89.9684C144.97 89.57 142.894 89.7232 141.024 90.5542C136.603 92.5191 135.035 97.4798 137.525 101.628C137.605 101.762 137.691 101.886 137.778 102.011C137.807 102.053 137.837 102.096 137.867 102.139C137.064 102.074 136.252 102.194 135.503 102.527C133.256 103.526 132.461 106.041 133.726 108.15C134.991 110.258 137.834 111.157 140.081 110.158L209.611 79.2558C211.858 78.2571 212.653 75.7417 211.388 73.6331C210.123 71.5254 207.282 70.6268 205.036 71.6234Z" fill="url(#paint0_linear_5797_2623)"/>
<path d="M213.719 89.0958C212.976 89.4262 212.474 90.0042 212.248 90.6736C212.239 90.6588 212.231 90.6439 212.223 90.629C212.216 90.6149 212.21 90.6007 212.203 90.5866C212.189 90.5576 212.175 90.5286 212.158 90.4995C210.645 87.9787 207.242 86.9075 204.561 88.0989C202.505 89.0125 201.474 90.9906 201.773 92.9996C201.412 92.9325 201.036 92.9592 200.698 93.1094C199.87 93.4773 199.577 94.4041 200.043 95.1809C200.103 95.2813 200.175 95.3767 200.254 95.4619C199.766 95.4446 199.266 95.5264 198.81 95.7291C197.3 96.3999 196.766 98.0898 197.616 99.5061C198.466 100.922 200.376 101.526 201.885 100.855L216.798 94.2273C218.308 93.5564 218.842 91.8665 217.992 90.4502C217.142 89.0339 215.232 88.4303 213.723 89.1011L213.719 89.0958Z" fill="url(#paint1_linear_5797_2623)"/>
<path d="M142.424 142.862C146.845 140.897 152.452 142.669 154.941 146.818L154.935 146.82C157.383 150.9 155.908 155.753 151.655 157.783L151.661 157.794L105.954 178.108C101.533 180.073 95.9257 178.301 93.4366 174.153C90.9475 170.004 92.5151 165.044 96.9361 163.079C97.1503 162.984 97.363 162.908 97.5808 162.831L97.5971 162.825C97.1107 162.419 96.6898 161.943 96.3601 161.394C94.8508 158.878 95.7975 155.867 98.4839 154.673C99.706 154.13 101.078 154.062 102.352 154.379C102.824 149.993 105.596 146.029 110.203 143.982C116.449 141.206 124.09 142.837 128.899 147.534C129.151 146.077 130.122 144.782 131.671 144.093C134.137 142.997 137.204 143.816 138.861 145.912C139.656 144.634 140.858 143.558 142.424 142.862Z" fill="url(#paint2_linear_5797_2623)"/>
</g>
<path d="M205.038 70.6223C204.171 71.0078 203.523 71.6169 203.124 72.3431C203.011 72.1058 202.891 71.8711 202.752 71.6386C200.263 67.4901 194.655 65.7182 190.234 67.683C188.28 68.5516 186.886 70.0081 186.151 71.7203C185.093 70.7178 183.439 70.3751 182.082 70.9783C181.575 71.2036 181.169 71.5379 180.876 71.9292C180.765 71.6372 180.631 71.3421 180.46 71.0567C178.947 68.5359 175.544 67.4647 172.863 68.6561C171.044 69.4646 170.028 71.1008 170.026 72.8559C165.254 69.4338 158.723 68.4876 153.255 70.918C146.012 74.1369 143.295 82.092 146.936 88.9685C144.97 88.5701 142.894 88.7233 141.024 89.5543C136.603 91.5192 135.035 96.4799 137.525 100.628C137.632 100.808 137.751 100.97 137.867 101.139C137.064 101.074 136.252 101.194 135.503 101.527C133.256 102.526 132.461 105.041 133.726 107.15C134.991 109.258 137.834 110.157 140.081 109.158L209.611 78.2559C211.858 77.2572 212.653 74.7418 211.388 72.6332C210.123 70.5246 207.28 69.6261 205.033 70.6248L205.038 70.6223Z" fill="url(#paint3_linear_5797_2623)"/>
<path d="M213.72 88.0958C212.976 88.4262 212.474 89.0042 212.248 89.6736C212.213 89.6155 212.193 89.5577 212.158 89.4995C210.645 86.9787 207.242 85.9075 204.561 87.0989C202.505 88.0125 201.474 89.9906 201.773 91.9996C201.412 91.9325 201.036 91.9592 200.698 92.1094C199.87 92.4773 199.577 93.4041 200.043 94.1809C200.103 94.2813 200.175 94.3767 200.254 94.4619C199.766 94.4446 199.266 94.5263 198.81 94.7291C197.3 95.3999 196.766 97.0898 197.616 98.5061C198.466 99.9224 200.376 100.526 201.885 99.8552L216.798 93.2273C218.308 92.5564 218.842 90.8665 217.992 89.4502C217.142 88.0339 215.232 87.4303 213.723 88.1011L213.72 88.0958Z" fill="url(#paint4_linear_5797_2623)"/>
<g filter="url(#filter2_d_5797_2623)">
<path d="M154.941 145.818C152.452 141.669 146.845 139.897 142.424 141.862C140.858 142.558 139.656 143.634 138.861 144.912C137.204 142.816 134.137 141.997 131.671 143.093C130.122 143.782 129.151 145.077 128.899 146.534C124.09 141.837 116.449 140.206 110.203 142.982C105.596 145.029 102.824 148.993 102.352 153.379C101.078 153.062 99.706 153.13 98.4839 153.673C95.7975 154.867 94.8508 157.878 96.3601 160.394C96.6898 160.943 97.1108 161.419 97.5971 161.825C97.3736 161.904 97.1557 161.981 96.9361 162.079C92.5151 164.044 90.9475 169.004 93.4366 173.153C95.9257 177.301 101.533 179.073 105.954 177.108L151.661 156.794L151.655 156.783C155.908 154.753 157.383 149.9 154.936 145.82L154.941 145.818Z" fill="url(#paint5_linear_5797_2623)"/>
</g>
<g filter="url(#filter3_bd_5797_2623)">
<path d="M178.439 80.9468L110.36 111.204C109.098 111.765 108.688 113.242 109.444 114.502L151.097 183.923C151.853 185.184 153.489 185.751 154.751 185.19L222.831 154.932C224.093 154.371 224.503 152.895 223.747 151.635L182.094 82.2132C181.338 80.9529 179.701 80.3859 178.439 80.9468Z" fill="url(#paint6_linear_5797_2623)"/>
</g>
<g filter="url(#filter4_bd_5797_2623)">
<path d="M109.735 114.988L151.097 183.924C151.853 185.184 153.489 185.751 154.751 185.19L222.455 155.099L222.747 155.585C223.503 156.845 223.093 158.322 221.831 158.883L153.751 189.14C152.489 189.701 150.853 189.134 150.097 187.874L108.444 118.452C107.688 117.192 108.098 115.716 109.36 115.155L109.735 114.988Z" fill="url(#paint7_linear_5797_2623)"/>
</g>
<path d="M166.405 103.423L121.96 123.143C120.698 123.703 120.288 125.18 121.044 126.44L121.159 126.632C121.916 127.893 123.552 128.46 124.814 127.899L169.259 108.179C170.521 107.618 170.931 106.142 170.175 104.881L170.06 104.689C169.303 103.429 167.667 102.862 166.405 103.423Z" fill="#ADC8D8"/>
<path d="M110.36 111.204L178.439 80.9468C179.701 80.3859 181.338 80.9529 182.094 82.2132L187.066 90.5005L114.416 122.789L109.444 114.502C108.688 113.242 109.098 111.765 110.36 111.204Z" fill="#ADC8D8"/>
<rect width="3.69777" height="3.69777" rx="1" transform="matrix(0.913812 -0.406138 0.514496 0.857493 116.675 113.383)" fill="#FFC000"/>
<path d="M182.469 95.8971L172.96 100.123C171.698 100.684 171.288 102.161 172.044 103.421L172.159 103.613C172.916 104.873 174.552 105.44 175.814 104.879L185.323 100.653C186.585 100.092 186.995 98.6159 186.239 97.3556L186.124 97.1634C185.367 95.9031 183.731 95.3361 182.469 95.8971Z" fill="#FFC000"/>
<path fill-rule="evenodd" clip-rule="evenodd" d="M202.588 145.746C207.136 143.725 210.362 140.319 212.018 136.321L215.12 137.301C215.398 138.294 216.229 139.166 217.381 139.53L227.504 142.729C229.223 143.272 231.005 142.479 231.486 140.959C231.967 139.438 230.963 137.765 229.244 137.222L219.121 134.023C217.969 133.659 216.788 133.895 215.99 134.548L212.888 133.567C213.831 129.344 213.147 124.703 210.586 120.436C204.895 110.95 192.087 106.903 181.978 111.395C171.87 115.888 168.289 127.22 173.98 136.705C179.671 146.191 192.48 150.238 202.588 145.746ZM199.418 140.461C206.416 137.351 208.895 129.506 204.955 122.939C201.015 116.372 192.147 113.57 185.149 116.68C178.151 119.79 175.672 127.635 179.612 134.202C183.552 140.769 192.419 143.571 199.418 140.461Z" fill="url(#paint8_linear_5797_2623)"/>
<path fill-rule="evenodd" clip-rule="evenodd" d="M203.588 143.746C208.136 141.725 211.362 138.319 213.018 134.321L216.12 135.301C216.398 136.294 217.229 137.166 218.381 137.53L228.504 140.729C230.223 141.272 232.005 140.479 232.486 138.959C232.967 137.438 231.963 135.765 230.244 135.222L220.121 132.023C218.969 131.659 217.788 131.895 216.99 132.548L213.888 131.567C214.831 127.344 214.147 122.703 211.586 118.436C205.895 108.95 193.087 104.903 182.978 109.395C172.87 113.888 169.289 125.22 174.98 134.705C180.671 144.191 193.48 148.238 203.588 143.746ZM200.418 138.461C207.416 135.351 209.895 127.506 205.955 120.939C202.015 114.372 193.147 111.57 186.149 114.68C179.151 117.79 176.672 125.635 180.612 132.202C184.552 138.769 193.419 141.571 200.418 138.461Z" fill="#F3F7FA"/>
<defs>
<filter id="filter0_f_5797_2623" x="-17.775" y="-59" width="350" height="350" filterUnits="userSpaceOnUse" color-interpolation-filters="sRGB">
<feFlood flood-opacity="0" result="BackgroundImageFix"/>
<feBlend mode="normal" in="SourceGraphic" in2="BackgroundImageFix" result="shape"/>
<feGaussianBlur stdDeviation="50" result="effect1_foregroundBlur_5797_2623"/>
</filter>
<filter id="filter1_d_5797_2623" x="72.2538" y="57.8813" width="166.142" height="151.029" filterUnits="userSpaceOnUse" color-interpolation-filters="sRGB">
<feFlood flood-opacity="0" result="BackgroundImageFix"/>
<feColorMatrix in="SourceAlpha" type="matrix" values="0 0 0 0 0 0 0 0 0 0 0 0 0 0 0 0 0 0 127 0" result="hardAlpha"/>
<feOffset dy="10"/>
<feGaussianBlur stdDeviation="10"/>
<feComposite in2="hardAlpha" operator="out"/>
<feColorMatrix type="matrix" values="0 0 0 0 0.35 0 0 0 0 0.54 0 0 0 0 0.65 0 0 0 0.05 0"/>
<feBlend mode="normal" in2="BackgroundImageFix" result="effect1_dropShadow_5797_2623"/>
<feBlend mode="normal" in="SourceGraphic" in2="effect1_dropShadow_5797_2623" result="shape"/>
</filter>
<filter id="filter2_d_5797_2623" x="72.2538" y="131.061" width="103.865" height="76.8494" filterUnits="userSpaceOnUse" color-interpolation-filters="sRGB">
<feFlood flood-opacity="0" result="BackgroundImageFix"/>
<feColorMatrix in="SourceAlpha" type="matrix" values="0 0 0 0 0 0 0 0 0 0 0 0 0 0 0 0 0 0 127 0" result="hardAlpha"/>
<feOffset dy="10"/>
<feGaussianBlur stdDeviation="10"/>
<feComposite in2="hardAlpha" operator="out"/>
<feColorMatrix type="matrix" values="0 0 0 0 0.35 0 0 0 0 0.54 0 0 0 0 0.65 0 0 0 0.05 0"/>
<feBlend mode="normal" in2="BackgroundImageFix" result="effect1_dropShadow_5797_2623"/>
<feBlend mode="normal" in="SourceGraphic" in2="effect1_dropShadow_5797_2623" result="shape"/>
</filter>
<filter id="filter3_bd_5797_2623" x="89.0648" y="70.7305" width="155.061" height="144.676" filterUnits="userSpaceOnUse" color-interpolation-filters="sRGB">
<feFlood flood-opacity="0" result="BackgroundImageFix"/>
<feGaussianBlur in="BackgroundImageFix" stdDeviation="2"/>
<feComposite in2="SourceAlpha" operator="in" result="effect1_backgroundBlur_5797_2623"/>
<feColorMatrix in="SourceAlpha" type="matrix" values="0 0 0 0 0 0 0 0 0 0 0 0 0 0 0 0 0 0 127 0" result="hardAlpha"/>
<feOffset dy="10"/>
<feGaussianBlur stdDeviation="10"/>
<feComposite in2="hardAlpha" operator="out"/>
<feColorMatrix type="matrix" values="0 0 0 0 0.35 0 0 0 0 0.54 0 0 0 0 0.65 0 0 0 0.05 0"/>
<feBlend mode="normal" in2="effect1_backgroundBlur_5797_2623" result="effect2_dropShadow_5797_2623"/>
<feBlend mode="normal" in="SourceGraphic" in2="effect2_dropShadow_5797_2623" result="shape"/>
</filter>
<filter id="filter4_bd_5797_2623" x="88.0648" y="104.988" width="155.061" height="114.369" filterUnits="userSpaceOnUse" color-interpolation-filters="sRGB">
<feFlood flood-opacity="0" result="BackgroundImageFix"/>
<feGaussianBlur in="BackgroundImageFix" stdDeviation="2"/>
<feComposite in2="SourceAlpha" operator="in" result="effect1_backgroundBlur_5797_2623"/>
<feColorMatrix in="SourceAlpha" type="matrix" values="0 0 0 0 0 0 0 0 0 0 0 0 0 0 0 0 0 0 127 0" result="hardAlpha"/>
<feOffset dy="10"/>
<feGaussianBlur stdDeviation="10"/>
<feComposite in2="hardAlpha" operator="out"/>
<feColorMatrix type="matrix" values="0 0 0 0 0.35 0 0 0 0 0.54 0 0 0 0 0.65 0 0 0 0.05 0"/>
<feBlend mode="normal" in2="effect1_backgroundBlur_5797_2623" result="effect2_dropShadow_5797_2623"/>
<feBlend mode="normal" in="SourceGraphic" in2="effect2_dropShadow_5797_2623" result="shape"/>
</filter>
<linearGradient id="paint0_linear_5797_2623" x1="217.835" y1="123.289" x2="93.4498" y2="123.289" gradientUnits="userSpaceOnUse">
<stop stop-color="#ADC8D8"/>
<stop offset="1" stop-color="#DFEAF1"/>
</linearGradient>
<linearGradient id="paint1_linear_5797_2623" x1="217.835" y1="123.289" x2="93.4498" y2="123.289" gradientUnits="userSpaceOnUse">
<stop stop-color="#ADC8D8"/>
<stop offset="1" stop-color="#DFEAF1"/>
</linearGradient>
<linearGradient id="paint2_linear_5797_2623" x1="217.835" y1="123.289" x2="93.4498" y2="123.289" gradientUnits="userSpaceOnUse">
<stop stop-color="#ADC8D8"/>
<stop offset="1" stop-color="#DFEAF1"/>
</linearGradient>
<linearGradient id="paint3_linear_5797_2623" x1="159.817" y1="68.0016" x2="171.449" y2="94.9596" gradientUnits="userSpaceOnUse">
<stop stop-color="#F6F9FA"/>
<stop offset="1" stop-color="#E3EDF2"/>
</linearGradient>
<linearGradient id="paint4_linear_5797_2623" x1="203.944" y1="87.3731" x2="208.059" y2="97.0128" gradientUnits="userSpaceOnUse">
<stop stop-color="#F6F9FA"/>
<stop offset="1" stop-color="#E3EDF2"/>
</linearGradient>
<linearGradient id="paint5_linear_5797_2623" x1="113.673" y1="141.44" x2="125.173" y2="168.297" gradientUnits="userSpaceOnUse">
<stop stop-color="#F6F9FA"/>
<stop offset="1" stop-color="#E3EDF2"/>
</linearGradient>
<linearGradient id="paint6_linear_5797_2623" x1="144.69" y1="95.9464" x2="176.471" y2="174.439" gradientUnits="userSpaceOnUse">
<stop stop-color="#F6F9FA"/>
<stop offset="1" stop-color="#E3EDF2"/>
</linearGradient>
<linearGradient id="paint7_linear_5797_2623" x1="222.615" y1="152.101" x2="109.156" y2="152.101" gradientUnits="userSpaceOnUse">
<stop stop-color="#ADC8D8"/>
<stop offset="1" stop-color="#DFEAF1"/>
</linearGradient>
<linearGradient id="paint8_linear_5797_2623" x1="220.109" y1="120.671" x2="179.507" y2="145.033" gradientUnits="userSpaceOnUse">
<stop stop-color="#ADC8D8"/>
<stop offset="1" stop-color="#DFEAF1"/>
</linearGradient>
</defs>
</svg>
