<svg viewBox="0 0 200 200" xmlns="http://www.w3.org/2000/svg">
<path d="M34.4931 51.7521C37.5085 53.4999 39.9478 57.7253 39.9478 61.2017C39.9478 64.6781 37.4893 66.0802 34.4547 64.3324C31.4393 62.5846 29.0001 58.3592 29.0001 54.8828C29.0001 51.4064 31.4585 50.0043 34.4931 51.7521Z" fill="#D4D8E2"/>
<path d="M156.248 48.8668C156.824 50.5378 158.283 51.959 159.493 52.0551C160.703 52.1511 161.222 50.8643 160.627 49.1933C160.031 47.5224 158.591 46.1011 157.381 46.005C156.171 45.909 155.652 47.1958 156.248 48.8668Z" fill="#D93DF5"/>
<path d="M144.159 68.5788L115.778 174.502C115.354 176.084 113.706 176.935 112.125 176.389L111.353 176.123L111.104 176.034L61.7303 157.966C60.3021 157.474 59.1242 156.759 59.5266 155.258L86.4133 54.915C86.8158 53.4131 87.3732 54.6326 88.84 54.9803L89.9702 55.2469L140.863 64.8567C140.863 64.8567 140.863 64.8567 140.867 64.8578L141.956 65.0589C143.581 65.4401 144.583 66.9964 144.159 68.5788Z" fill="#B9BED0"/>
<path d="M142.543 68.1459L114.177 174.01C113.805 175.397 112.492 176.22 111.11 176.031C110.917 176.006 110.721 175.959 110.53 175.894L59.815 158.396C58.3868 157.904 57.524 156.267 57.9264 154.765L84.7984 54.478C85.2008 52.976 86.754 52.0364 88.2219 52.3798L90.6793 52.9566L140.335 64.6249C140.523 64.6706 140.689 64.8105 140.863 64.8569C140.863 64.8569 140.863 64.8569 140.867 64.8581C142.177 65.3678 142.918 66.7498 142.543 68.1459Z" fill="#EDEEF3"/>
<path d="M85.0111 60.4525L60.1026 153.412C59.7274 154.813 60.5125 156.333 61.8456 156.79L109.532 173.137C111.002 173.639 112.53 172.847 112.924 171.375L139.132 73.5665C139.526 72.0942 138.615 70.5892 137.105 70.2302L88.1825 58.4999C86.81 58.1729 85.3864 59.0521 85.0111 60.4525Z" fill="#EDEEF3"/>
<path d="M111.865 61.2133C111.722 61.7464 112.037 62.2798 112.574 62.4099C113.107 62.5347 113.658 62.2061 113.801 61.673C113.943 61.1399 113.625 60.6012 113.092 60.4764C112.554 60.3505 112.008 60.6802 111.865 61.2133Z" fill="#F9F9FB"/>
<path opacity="0.3" d="M118.829 163.112L115.777 174.502C115.353 176.084 113.706 176.935 112.125 176.389L111.353 176.123L111.104 176.034C110.911 176.009 110.716 175.961 110.525 175.897L59.8137 158.4C58.3855 157.908 57.5227 156.271 57.9251 154.769L84.7982 54.4777C85.2007 52.9758 86.7539 52.0361 88.2218 52.3796L90.6791 52.9564C90.4342 53.6843 90.2047 54.4391 89.9807 55.1907C89.626 56.379 89.3094 57.5774 89.0313 58.7C88.2927 61.6764 87.8471 64.1689 87.9265 64.7524C89.41 75.8516 101.25 81.1825 104.048 91.6046C106.158 99.4705 101.342 105.599 97.6288 112.009C86.7804 130.732 97.6464 147.279 113.149 158.656C114.073 159.335 114.956 160.002 115.804 160.66C116.356 161.089 116.898 161.52 117.416 161.94C117.895 162.336 118.307 162.709 118.829 163.112Z" fill="#EDEEF3"/>
<path d="M78.2887 95.9662C77.0721 101.336 71.872 104.581 66.6866 103.219C61.5151 101.856 58.3193 96.4197 59.5375 91.0779C60.7557 85.7361 65.9251 82.4869 71.095 83.8223C76.2786 85.1568 79.5052 90.5968 78.2887 95.9662Z" fill="#B9BED0"/>
<path d="M78.0897 95.913C76.8984 101.171 71.8078 104.346 66.7325 103.014C61.671 101.68 58.539 96.3608 59.7331 91.1259C60.9261 85.8952 65.986 82.7164 71.05 84.0234C76.1268 85.3338 79.2799 90.6589 78.0897 95.913Z" fill="#B9BED0"/>
<path opacity="0.8" d="M77.1326 95.661C76.0652 100.372 71.5029 103.217 66.9576 102.022C62.4207 100.829 59.6131 96.059 60.6844 91.3671C61.7503 86.6783 66.2915 83.8275 70.8287 85.0025C75.3732 86.1839 78.203 90.9553 77.1326 95.661Z" fill="#B9BED0"/>
<path opacity="0.5" d="M68.293 100.439C68.0357 99.25 68.2786 98.7664 68.7953 94.7058C69.5575 88.6795 69.2905 87.5605 69.0307 86.8379C68.7658 86.1003 68.2293 85.0225 67.0265 83.893C63.5333 84.5759 60.5996 87.2996 59.73 91.1205C58.5401 96.3565 61.671 101.68 66.7325 103.014C67.7194 103.274 68.7028 103.36 69.6622 103.3C69.0239 102.467 68.5298 101.518 68.293 100.439Z" fill="#B9BED0"/>
<path d="M108.956 73.3074C108.953 73.216 108.898 73.1652 108.821 73.149L72.7318 64.2588C71.9531 64.0683 71.0555 64.6259 70.8004 65.5778L67.7906 76.8107C67.5343 77.7668 68.023 78.7185 68.8026 78.9229L98.1881 86.7196C99.0215 86.9429 100.031 86.3564 100.298 85.3622L102.6 76.7694L108.871 73.5206C108.945 73.4815 108.954 73.3977 108.956 73.3074Z" fill="#B9BED0"/>
<path d="M97.0786 117.633C97.0759 117.542 97.0215 117.491 96.9442 117.474L60.8549 108.584C60.0761 108.394 59.1785 108.951 58.9234 109.903L55.9136 121.136C55.6574 122.092 56.1461 123.044 56.9257 123.248L86.3111 131.045C87.1446 131.268 88.1542 130.682 88.4206 129.688L90.7231 121.095L96.9943 117.846C97.0682 117.807 97.0771 117.723 97.0786 117.633Z" fill="#B9BED0"/>
<path d="M99.0876 75.1888C98.9708 75.6246 98.646 75.923 98.281 75.8297L72.8228 69.4028C72.4747 69.314 72.2777 68.8985 72.3911 68.4754L72.3956 68.4585C72.509 68.0354 72.9066 67.7701 73.2515 67.8534L98.7095 74.2305C99.0787 74.3249 99.21 74.7319 99.0921 75.1719L99.0876 75.1888Z" fill="#B9BED0"/>
<path d="M98.1511 78.6835C98.0343 79.1192 97.7095 79.4176 97.3445 79.3244L71.9146 72.7916C71.5666 72.7029 71.3707 72.2831 71.4841 71.86L71.4886 71.8431C71.6019 71.42 71.9995 71.1547 72.3434 71.2423L97.773 77.7251C98.1422 77.8195 98.2724 78.2308 98.1556 78.6665L98.1511 78.6835Z" fill="#B9BED0"/>
<path d="M85.1072 79.1833C84.9915 79.6149 84.6351 79.8957 84.2798 79.8005L70.9565 76.3167C70.6096 76.2238 70.4253 75.8116 70.5386 75.3885L70.5432 75.3716C70.6565 74.9485 71.0541 74.6832 71.3968 74.775L84.7057 78.2278C85.0622 78.3188 85.2316 78.736 85.1159 79.1675L85.1114 79.1845L85.1072 79.1833Z" fill="#B9BED0"/>
<path d="M80.9493 89.0157C80.992 88.941 81.0612 88.9368 81.1331 88.9561L118.157 99.0806C119.031 99.3195 119.456 100.24 119.183 101.26L115.976 113.229C115.703 114.244 114.854 114.91 113.983 114.659L83.3643 105.693C82.5523 105.457 82.1156 104.447 82.3775 103.469L84.6459 95.0033L80.9615 89.2412C80.917 89.1703 80.9024 89.0893 80.9493 89.0157Z" fill="#B9BED0"/>
<path d="M69.097 133.248C69.1397 133.173 69.2089 133.169 69.2808 133.188L106.305 143.313C107.179 143.552 107.604 144.473 107.33 145.492L104.123 157.461C103.851 158.477 103.002 159.142 102.13 158.891L71.512 149.925C70.7 149.689 70.2633 148.679 70.5252 147.701L72.7936 139.235L69.1092 133.473C69.0647 133.402 69.0501 133.321 69.097 133.248Z" fill="#B9BED0"/>
<path d="M119.948 132.318C118.668 138.007 112.96 141.252 107.209 139.566C101.479 137.885 97.8791 131.942 99.1535 126.289C100.428 120.635 106.096 117.388 111.831 119.034C117.583 120.684 121.226 126.634 119.948 132.318Z" fill="#B9BED0"/>
<path d="M119.729 132.255C118.477 137.824 112.887 141.001 107.262 139.353C101.649 137.709 98.1288 131.891 99.3757 126.357C100.623 120.823 106.172 117.644 111.786 119.253C117.412 120.865 120.98 126.691 119.729 132.255Z" fill="#B9BED0"/>
<path opacity="0.8" d="M118.664 131.947C117.546 136.935 112.534 139.782 107.492 138.308C102.462 136.838 99.3031 131.62 100.423 126.661C101.544 121.701 106.516 118.848 111.547 120.295C116.592 121.742 119.787 126.961 118.664 131.947Z" fill="#B9BED0"/>
<path opacity="0.5" d="M108.955 136.669C108.655 135.387 108.921 134.883 109.434 130.567C110.198 124.16 109.89 122.958 109.592 122.175C109.289 121.377 108.684 120.199 107.342 118.946C103.494 119.53 100.291 122.313 99.3751 126.357C98.1271 131.895 101.648 137.709 107.261 139.353C108.354 139.673 109.442 139.811 110.501 139.786C109.784 138.873 109.228 137.835 108.955 136.669Z" fill="#B9BED0"/>
<path d="M118.632 132.066C117.514 137.053 112.502 139.9 107.461 138.423C102.431 136.952 99.2723 131.735 100.393 126.775C101.513 121.815 106.486 118.962 111.517 120.41C116.561 121.857 119.755 127.079 118.632 132.066Z" fill="#B9BED0"/>
<mask id="mask0_5866_14441" style="mask-type:luminance" maskUnits="userSpaceOnUse" x="100" y="120" width="19" height="19">
<path d="M118.632 132.066C117.514 137.053 112.502 139.9 107.461 138.423C102.431 136.952 99.2723 131.735 100.393 126.775C101.513 121.815 106.486 118.962 111.517 120.41C116.561 121.857 119.755 127.079 118.632 132.066Z" fill="white"/>
</mask>
<g mask="url(#mask0_5866_14441)">
<path d="M95.2064 141.832C94.9736 139.502 96.9942 136.48 98.1117 135.169C101.374 131.337 105.231 132.393 108.417 133.264C111.568 134.127 114.636 134.967 115.928 139.181C116.778 141.948 116.995 146.605 115.493 148.556C113.92 150.601 111.799 147.906 105.669 145.837C99.0293 143.591 95.5005 144.745 95.2064 141.832Z" fill="#B9BED0"/>
<path d="M111.232 134.672C111.079 135.243 109.482 135.482 107.748 134.931C106.018 134.381 104.805 133.254 104.957 132.687C105.109 132.12 106.437 132.816 108.168 133.361C109.904 133.908 111.386 134.096 111.232 134.672Z" fill="#B9BED0"/>
<path d="M107.996 129.334C107.519 129.183 107.73 132.849 105.88 132.762C105.701 132.754 105.617 132.968 105.745 133.097C106.142 133.494 106.927 134.085 108.356 134.54C109.288 134.836 110.063 134.703 110.481 134.579C110.624 134.536 110.659 134.355 110.547 134.248C110.081 133.806 109.57 132.698 110.479 130.203L107.996 129.334Z" fill="#B9BED0"/>
<path d="M107.617 124.911C107.614 124.955 106.946 128.023 107.236 129.751C107.32 130.25 108.326 130.506 108.984 130.655C109.557 130.786 110.381 131.265 110.736 130.956C112.149 129.725 113.004 125.842 113.004 125.842C113.004 125.842 112.834 124.413 110.724 123.807C108.63 123.21 107.617 124.911 107.617 124.911Z" fill="#B9BED0"/>
<path d="M107.668 126.684C107.668 126.684 107.367 126.045 106.974 125.854C106.581 125.662 106.036 126.632 106.409 127.489C106.783 128.346 107.583 127.98 107.583 127.98L107.668 126.684Z" fill="#B9BED0"/>
<path d="M111.93 128.003C111.93 128.003 112.505 127.635 112.939 127.692C113.371 127.754 113.359 128.898 112.605 129.412C111.855 129.928 111.355 129.15 111.355 129.15L111.93 128.003Z" fill="#B9BED0"/>
<path d="M113.872 125.394C113.351 126.61 112.559 127.654 112.473 127.89C112.354 128.216 112.19 128.371 111.984 128.344C111.779 128.316 112.584 125.988 112.395 125.846C112.21 125.706 108.764 124.456 108.422 124.868C108.075 125.283 107.574 127.543 107.396 126.819C107.396 126.819 107.285 126.658 107.196 126.008C107.14 125.608 107.05 124.573 107.152 123.752C107.217 123.239 107.364 122.807 107.641 122.672C108.368 122.328 114.533 122.252 114.293 123.974C114.225 124.45 114.068 124.934 113.872 125.394Z" fill="#B9BED0"/>
<path opacity="0.3" d="M113.872 125.394C113.351 126.61 112.559 127.654 112.473 127.89C112.354 128.216 112.19 128.371 111.985 128.344C111.779 128.316 112.584 125.988 112.395 125.846C112.211 125.706 108.764 124.456 108.422 124.868C108.075 125.283 107.574 127.543 107.396 126.819C107.396 126.819 107.285 126.658 107.196 126.008C107.14 125.608 107.05 124.573 107.152 123.752C107.27 123.87 107.488 123.955 107.898 123.861C108.77 123.655 109.566 123.9 110.742 124.587C111.819 125.22 113.134 125.745 113.872 125.394Z" fill="#B9BED0"/>
</g>
<path d="M77.7284 95.1632C76.5119 100.533 71.3117 103.778 66.1264 102.416C60.9549 101.053 57.759 95.6166 58.9772 90.2748C60.1954 84.933 65.3648 81.6838 70.5347 83.0192C75.7215 84.3591 78.9438 89.7979 77.7284 95.1632Z" fill="#D4D8E2"/>
<path d="M77.5284 95.1141C76.3371 100.372 71.2465 103.548 66.1712 102.215C61.1097 100.881 57.9778 95.5619 59.1719 90.327C60.3648 85.0963 65.4247 81.9175 70.4888 83.2245C75.5655 84.5349 78.7228 89.8611 77.5284 95.1141Z" fill="#D4D8E2"/>
<path opacity="0.8" d="M76.5713 94.8621C75.504 99.5732 70.9416 102.418 66.3963 101.223C61.8594 100.03 59.0519 95.2601 60.1231 90.5682C61.189 85.8794 65.7302 83.0286 70.2674 84.2036C74.8119 85.385 77.6418 90.1564 76.5713 94.8621Z" fill="#EDEEF3"/>
<path opacity="0.5" d="M67.7373 99.637C67.48 98.448 67.723 97.9644 68.2396 93.9039C69.0019 87.8776 68.7349 86.7586 68.475 86.0359C68.2101 85.2984 67.6737 84.2205 66.4708 83.091C62.9776 83.7739 60.044 86.4976 59.1744 90.3185C57.9814 95.5492 61.1122 100.873 66.1737 102.206C67.1606 102.466 68.1441 102.553 69.1034 102.493C68.4628 101.668 67.9688 100.719 67.7373 99.637Z" fill="#EDEEF3"/>
<mask id="mask1_5866_14441" style="mask-type:luminance" maskUnits="userSpaceOnUse" x="59" y="83" width="18" height="19">
<path d="M76.5542 94.8576C75.4869 99.5687 70.9246 102.414 66.3792 101.219C61.8423 100.026 59.0348 95.2556 60.106 90.5637C61.172 85.8749 65.7131 83.0241 70.2503 84.1991C74.7906 85.3793 77.6204 90.1507 76.5542 94.8576Z" fill="white"/>
</mask>
<g mask="url(#mask1_5866_14441)">
<path d="M63.32 99.5191C60.1172 97.9672 59.4857 97.3626 59.3422 96.5442C59.1295 95.3581 59.9392 93.7748 61.0639 92.9789C62.0542 92.2783 63.0334 92.3639 63.1739 91.7213C63.2922 91.1953 62.6695 90.9468 62.464 89.8352C62.4057 89.5112 62.2888 88.8813 62.581 88.2477C63.0121 87.3157 64.0143 87.0446 64.0934 87.0205C65.1402 86.7523 65.4954 87.4913 66.3085 87.215C67.3269 86.8666 67.2634 85.53 68.1698 85.3965C68.8312 85.2971 69.4763 85.9189 69.6426 86.0768C70.2051 86.6175 70.0399 86.9633 70.5372 87.3414C71.1215 87.7836 71.55 87.454 72.2693 87.8327C72.8653 88.1466 73.2052 88.7228 73.4582 89.2849C74.0277 90.5439 73.4468 91.0367 73.7317 92.478C74.1341 94.513 75.521 94.6851 75.3767 96.1882C75.2976 96.9741 74.8907 97.2234 74.8266 98.4441C74.7819 99.271 74.956 99.4673 74.8663 99.9376C74.6184 101.286 72.7844 101.987 72.4477 102.11C70.3005 102.863 67.9318 101.752 63.32 99.5191Z" fill="#B9BED0"/>
<path opacity="0.7" d="M69.7433 97.7169C67.4954 96.8833 65.377 98.5784 64.9097 97.8682C64.4684 97.1968 66.5535 95.9643 66.5313 93.8135C66.5061 91.7072 64.4779 90.6967 64.9407 89.6463C65.4633 88.4576 68.4238 88.9335 68.6021 87.9973C68.7092 87.4455 67.7182 87.0485 67.7464 86.131C67.7537 85.8835 67.833 85.6554 67.95 85.4555C67.2703 85.7585 67.2373 86.897 66.3098 87.2107C65.4966 87.4871 65.1414 86.748 64.0946 87.0162C64.0125 87.035 63.0134 87.3115 62.5823 88.2434C62.29 88.8771 62.4027 89.5058 62.4652 89.8309C62.6707 90.9425 63.2934 91.191 63.1751 91.7171C63.0305 92.3585 62.0512 92.273 61.0651 92.9746C59.9404 93.7706 59.1307 95.3539 59.3435 96.54C59.4923 97.3553 60.1227 97.9641 63.3213 99.5149C67.9331 101.748 70.3018 102.859 72.4447 102.105C73.2805 101.812 74.3373 101.201 74.7179 100.492C74.2733 100.713 73.8867 100.768 73.5462 100.736C71.97 100.576 71.7855 98.4726 69.7433 97.7169Z" fill="#B9BED0"/>
<path d="M57.4535 104.677C57.2834 103.044 58.2337 100.868 58.4391 100.406C59.2236 98.6119 60.2078 97.6468 60.5631 97.3021C63.0082 94.9463 65.5909 95.7154 67.555 96.3052C68.5329 96.599 69.5579 96.8691 70.6883 97.6935C70.6883 97.6935 71.5878 98.3471 72.2704 99.2012C74.3245 101.774 74.7477 108.385 72.0727 110.009C70.3831 111.034 69.5433 108.787 63.6312 107.869C61.302 107.508 58.8142 107.349 57.7745 105.679C57.5996 105.4 57.4968 105.074 57.4535 104.677Z" fill="#D4D8E2"/>
<path d="M67.444 92.539C67.444 92.539 67.0297 95.7609 64.7643 95.7706C64.505 95.7737 64.3438 96.0706 64.477 96.3013L66.384 99.592C66.4986 99.7904 66.7494 99.8531 66.9417 99.7278L70.039 97.6964C70.242 97.5648 70.2514 97.259 70.0552 97.1112C69.371 96.6014 68.2369 95.3679 69.1333 93.173L67.444 92.539Z" fill="#EDEEF3"/>
<path d="M66.6197 90.4544C66.6106 90.4882 66.3647 93.6736 67.8229 94.087C69.2092 94.4812 70.3343 92.3975 70.7878 91.3989C70.8523 91.2258 70.9211 91.0537 70.9856 90.8806C70.8846 90.8853 70.6307 90.8852 70.3688 90.7289C70.3098 90.695 69.9354 90.4677 69.8803 90.0811C69.8185 89.6518 70.2036 89.4331 70.1208 89.0481C70.0714 88.8263 69.8933 88.6788 69.7492 88.5903C69.813 88.7752 69.9166 89.1839 69.7174 89.4706C69.5845 89.6617 69.3132 89.8112 68.8076 89.8027C67.3546 89.7761 66.7864 89.7645 66.6197 90.4544Z" fill="#EDEEF3"/>
<path d="M66.8775 90.9134C66.8775 90.9134 66.3036 90.0432 66.1324 90.4281C65.7726 91.2295 66.2887 91.8757 66.7014 91.7232C67.114 91.5708 66.8775 90.9134 66.8775 90.9134Z" fill="#EDEEF3"/>
<path d="M70.196 91.848C70.196 91.848 71.129 91.3951 71.0867 91.8236C70.9996 92.7072 70.2245 92.9938 69.9425 92.6416C69.6605 92.2895 70.196 91.848 70.196 91.848Z" fill="#EDEEF3"/>
</g>
<path d="M65.7267 139.954C64.5101 145.324 59.31 148.569 54.1247 147.207C48.9531 145.844 45.7573 140.408 46.9755 135.066C48.1937 129.724 53.3631 126.475 58.533 127.81C63.7197 129.15 66.9421 134.589 65.7267 139.954Z" fill="#D4D8E2"/>
<path d="M65.5265 139.905C64.3352 145.163 59.2446 148.338 54.1693 147.006C49.1077 145.672 45.9758 140.353 47.1699 135.118C48.3629 129.887 53.4227 126.708 58.4868 128.015C63.5636 129.326 66.7209 134.652 65.5265 139.905Z" fill="#D4D8E2"/>
<path opacity="0.8" d="M64.5694 139.653C63.502 144.364 58.9397 147.209 54.3943 146.014C49.8575 144.821 47.0499 140.051 48.1212 135.359C49.1871 130.67 53.7283 127.82 58.2654 128.995C62.81 130.176 65.6398 134.947 64.5694 139.653Z" fill="#EDEEF3"/>
<path opacity="0.5" d="M55.7354 144.428C55.4781 143.239 55.721 142.755 56.2377 138.695C56.9999 132.669 56.7329 131.55 56.4731 130.827C56.2082 130.089 55.6717 129.011 54.4689 127.882C50.9757 128.565 48.042 131.289 47.1724 135.109C45.9794 140.34 49.1102 145.664 54.1717 146.997C55.1587 147.257 56.1421 147.344 57.1015 147.284C56.4609 146.459 55.9668 145.51 55.7354 144.428Z" fill="#EDEEF3"/>
<mask id="mask2_5866_14441" style="mask-type:luminance" maskUnits="userSpaceOnUse" x="47" y="128" width="18" height="19">
<path d="M64.5525 139.649C63.4852 144.36 58.9228 147.205 54.3775 146.01C49.8406 144.817 47.0331 140.047 48.1043 135.355C49.1702 130.666 53.7114 127.815 58.2486 128.99C62.7889 130.17 65.6187 134.942 64.5525 139.649Z" fill="white"/>
</mask>
<g mask="url(#mask2_5866_14441)">
<path d="M51.3185 144.31C48.1158 142.758 47.4842 142.154 47.3407 141.335C47.128 140.149 47.9377 138.566 49.0624 137.77C50.0528 137.069 51.032 137.155 51.1724 136.512C51.2907 135.986 50.668 135.738 50.4625 134.626C50.4042 134.302 50.2873 133.672 50.5795 133.039C51.0107 132.107 52.0129 131.836 52.0919 131.811C53.1387 131.543 53.4939 132.282 54.3071 132.006C55.3255 131.658 55.2619 130.321 56.1683 130.187C56.8298 130.088 57.4749 130.71 57.6411 130.868C58.2037 131.409 58.0385 131.754 58.5357 132.132C59.1201 132.575 59.5485 132.245 60.2678 132.624C60.8639 132.938 61.2037 133.514 61.4567 134.076C62.0263 135.335 61.4453 135.828 61.7302 137.269C62.1327 139.304 63.5195 139.476 63.3752 140.979C63.2961 141.765 62.8893 142.014 62.8252 143.235C62.7804 144.062 62.9546 144.258 62.8648 144.729C62.6169 146.077 60.783 146.778 60.4462 146.901C58.299 147.654 55.9304 146.543 51.3185 144.31Z" fill="#B9BED0"/>
<path opacity="0.7" d="M57.7414 142.508C55.4934 141.674 53.375 143.369 52.9078 142.659C52.4665 141.988 54.5516 140.755 54.5293 138.604C54.5042 136.498 52.4759 135.488 52.9388 134.437C53.4613 133.249 56.4219 133.725 56.6002 132.788C56.7072 132.237 55.7162 131.839 55.7444 130.922C55.7518 130.675 55.831 130.446 55.9481 130.246C55.2683 130.55 55.2353 131.688 54.3078 132.002C53.4946 132.278 53.1395 131.539 52.0927 131.807C52.0105 131.826 51.0114 132.102 50.5803 133.034C50.2881 133.668 50.4008 134.297 50.4633 134.622C50.6688 135.734 51.2915 135.982 51.1732 136.508C51.0285 137.15 50.0493 137.064 49.0632 137.766C47.9385 138.562 47.1288 140.145 47.3415 141.331C47.4903 142.146 48.1208 142.755 51.3193 144.306C55.9311 146.539 58.2998 147.65 60.4428 146.896C61.2785 146.603 62.3353 145.992 62.716 145.283C62.2713 145.504 61.8847 145.559 61.5442 145.527C59.968 145.367 59.7835 143.264 57.7414 142.508Z" fill="#B9BED0"/>
<path d="M45.4516 149.467C45.2814 147.835 46.2317 145.659 46.4371 145.197C47.2217 143.403 48.2058 142.438 48.5612 142.093C51.0062 139.737 53.5889 140.506 55.5531 141.096C56.5309 141.39 57.5559 141.66 58.6863 142.484C58.6863 142.484 59.5859 143.138 60.2685 143.992C62.3225 146.565 62.7457 153.176 60.0707 154.799C58.3812 155.825 57.5414 153.578 51.6293 152.66C49.3 152.299 46.8122 152.14 45.7726 150.469C45.5977 150.191 45.4948 149.865 45.4516 149.467Z" fill="#D4D8E2"/>
<path d="M55.4421 137.33C55.4421 137.33 55.0277 140.552 52.7624 140.562C52.5031 140.565 52.3419 140.862 52.4751 141.092L54.3821 144.383C54.4967 144.581 54.7474 144.644 54.9397 144.519L58.037 142.487C58.24 142.356 58.2494 142.05 58.0532 141.902C57.3691 141.392 56.2349 140.159 57.1314 137.964L55.4421 137.33Z" fill="#EDEEF3"/>
<path d="M54.6179 135.245C54.6089 135.279 54.363 138.465 55.8212 138.878C57.2075 139.272 58.3326 137.188 58.7861 136.19C58.8506 136.017 58.9194 135.845 58.9839 135.672C58.8829 135.676 58.629 135.676 58.3671 135.52C58.3081 135.486 57.9337 135.259 57.8786 134.872C57.8167 134.443 58.2019 134.224 58.1191 133.839C58.0697 133.617 57.8916 133.47 57.7475 133.381C57.8113 133.566 57.9149 133.975 57.7157 134.262C57.5828 134.453 57.3115 134.602 56.8059 134.594C55.3529 134.567 54.7847 134.555 54.6179 135.245Z" fill="#EDEEF3"/>
<path d="M54.8758 135.704C54.8758 135.704 54.3019 134.834 54.1307 135.219C53.7709 136.021 54.287 136.667 54.6997 136.514C55.1123 136.362 54.8758 135.704 54.8758 135.704Z" fill="#EDEEF3"/>
<path d="M58.1942 136.639C58.1942 136.639 59.1273 136.186 59.085 136.615C58.9979 137.498 58.2228 137.785 57.9408 137.433C57.6588 137.08 58.1942 136.639 58.1942 136.639Z" fill="#EDEEF3"/>
</g>
<path d="M108.394 72.5086C108.392 72.4172 108.337 72.3663 108.26 72.3502L72.2395 63.4739C71.4607 63.2834 70.6308 63.8591 70.3757 64.811L67.3659 76.0439C67.1097 77 67.5307 77.9336 68.3103 78.138L97.6576 85.9245C98.4911 86.1478 99.4585 85.55 99.7249 84.5557L102.027 75.9629L108.303 72.7153C108.38 72.6815 108.393 72.5989 108.394 72.5086Z" fill="#D4D8E2"/>
<path d="M96.5177 116.834C96.515 116.743 96.4606 116.692 96.3833 116.676L60.3628 107.799C59.584 107.609 58.7541 108.185 58.499 109.136L55.4892 120.369C55.233 121.326 55.654 122.259 56.4336 122.463L85.7809 130.25C86.6144 130.473 87.5817 129.875 87.8482 128.881L90.1506 120.288L96.426 117.041C96.5031 117.007 96.5162 116.924 96.5177 116.834Z" fill="#D4D8E2"/>
<path d="M98.6634 74.4221C98.5466 74.8579 98.1541 75.1382 97.7891 75.0449L72.2928 68.6077C71.9448 68.519 71.7055 68.0921 71.8188 67.669L71.8234 67.6521C71.9367 67.229 72.3385 66.9648 72.6877 67.0493L98.2176 73.4457C98.5869 73.5401 98.7901 73.9664 98.6722 74.4064L98.6676 74.4233L98.6634 74.4221Z" fill="#F9F9FB"/>
<path d="M97.7254 77.9209C97.6086 78.3567 97.2161 78.637 96.8511 78.5437L71.3832 72.0007C71.0351 71.912 70.797 71.4809 70.9103 71.0578L70.9149 71.0409C71.0282 70.6178 71.43 70.3536 71.7781 70.4424L97.2797 76.9445C97.6489 77.0388 97.8509 77.4694 97.7342 77.9051L97.7296 77.9221L97.7254 77.9209Z" fill="#F9F9FB"/>
<path d="M84.5335 78.3811C84.4179 78.8127 84.0657 79.0947 83.7103 78.9995L70.3828 75.5145C70.0359 75.4216 69.8474 75.0083 69.9607 74.5852L69.9653 74.5683C70.0786 74.1452 70.4805 73.881 70.8274 73.974L84.1321 77.4256C84.4886 77.5166 84.6537 77.9327 84.5381 78.3642L84.5335 78.3811Z" fill="#F9F9FB"/>
<path d="M86.7864 118.748C86.6697 119.183 86.2772 119.464 85.9122 119.37L60.4159 112.933C60.0678 112.844 59.8285 112.418 59.9419 111.994L59.9464 111.978C60.0598 111.554 60.4616 111.29 60.8108 111.375L86.3407 117.771C86.7099 117.866 86.9131 118.292 86.7952 118.732L86.7907 118.749L86.7864 118.748Z" fill="#F9F9FB"/>
<path d="M85.8484 122.246C85.7317 122.682 85.3392 122.962 84.9742 122.869L59.5062 116.326C59.1582 116.237 58.92 115.806 59.0334 115.383L59.0379 115.366C59.1513 114.943 59.5531 114.679 59.9011 114.768L85.4027 121.27C85.7719 121.364 85.974 121.795 85.8572 122.231L85.8527 122.248L85.8484 122.246Z" fill="#F9F9FB"/>
<path d="M72.6563 122.707C72.5407 123.138 72.1885 123.42 71.8331 123.325L58.5056 119.84C58.1587 119.747 57.9702 119.334 58.0835 118.911L58.0881 118.894C58.2014 118.471 58.6033 118.206 58.9502 118.299L72.2549 121.751C72.6114 121.842 72.7765 122.258 72.6609 122.69L72.6563 122.707Z" fill="#F9F9FB"/>
<path d="M80.388 88.2168C80.4307 88.142 80.4998 88.1379 80.5717 88.1572L117.591 98.2806C118.466 98.5195 118.886 99.4392 118.613 100.459L115.406 112.428C115.134 113.443 114.293 114.111 113.417 113.858L82.7945 104.891C81.9825 104.656 81.5416 103.644 81.8034 102.667L84.073 94.1967L80.3928 88.4357C80.3514 88.3702 80.3411 88.2903 80.388 88.2168Z" fill="#D4D8E2"/>
<path d="M68.5359 132.449C68.5786 132.374 68.6478 132.37 68.7197 132.389L105.739 142.513C106.614 142.752 107.034 143.671 106.761 144.691L103.554 156.66C103.282 157.675 102.441 158.343 101.565 158.091L70.9424 149.124C70.1304 148.888 69.6895 147.876 69.9514 146.899L72.2209 138.429L68.5408 132.668C68.4994 132.602 68.489 132.523 68.5359 132.449Z" fill="#D4D8E2"/>
<path d="M115.889 102.382C116.009 101.933 115.735 101.465 115.347 101.357L88.6309 93.9398C88.2681 93.8381 87.8694 94.1076 87.7527 94.5434L87.747 94.5645C87.6302 95.0003 87.8142 95.4305 88.177 95.5323L114.901 103.006C115.285 103.113 115.758 102.854 115.878 102.406L115.885 102.381L115.889 102.382Z" fill="#F9F9FB"/>
<path d="M114.926 105.974C115.047 105.525 114.773 105.057 114.386 104.945L87.7 97.4133C87.3372 97.3116 86.9397 97.5769 86.8229 98.0126L86.8172 98.0338C86.7005 98.4696 86.8845 98.8998 87.2472 99.0015L113.941 106.589C114.325 106.697 114.797 106.438 114.918 105.99L114.922 105.973L114.926 105.974Z" fill="#F9F9FB"/>
<path d="M101.209 106.057C101.328 105.613 101.129 105.174 100.754 105.065L86.7356 101.046C86.374 100.94 85.9753 101.209 85.8585 101.645L85.8528 101.666C85.7361 102.102 85.9201 102.532 86.2817 102.638L100.319 106.69C100.693 106.799 101.085 106.523 101.204 106.079L101.209 106.057Z" fill="#F9F9FB"/>
<path d="M104.037 146.614C104.157 146.165 103.883 145.698 103.495 145.589L76.7788 138.172C76.4161 138.07 76.0174 138.34 75.9006 138.776L75.8949 138.797C75.7782 139.232 75.9622 139.663 76.3249 139.764L103.049 147.238C103.433 147.345 103.906 147.087 104.026 146.638L104.033 146.613L104.037 146.614Z" fill="#F9F9FB"/>
<path d="M103.075 150.206C103.195 149.757 102.921 149.29 102.534 149.177L75.8481 141.645C75.4854 141.544 75.0879 141.809 74.9711 142.245L74.9654 142.266C74.8487 142.702 75.0327 143.132 75.3954 143.234L102.089 150.822C102.473 150.929 102.946 150.67 103.066 150.222L103.07 150.205L103.075 150.206Z" fill="#F9F9FB"/>
<path d="M89.3575 150.29C89.4765 149.845 89.2767 149.406 88.9024 149.297L74.8838 145.278C74.5222 145.172 74.1235 145.441 74.0067 145.877L74.001 145.898C73.8843 146.334 74.0683 146.764 74.4299 146.87L88.4671 150.922C88.8414 151.031 89.2328 150.755 89.3518 150.311L89.3575 150.29Z" fill="#F9F9FB"/>
<path d="M119.386 131.52C118.107 137.208 112.399 140.453 106.648 138.767C100.917 137.086 97.3178 131.143 98.5922 125.49C99.8667 119.836 105.534 116.589 111.27 118.235C117.022 119.885 120.665 125.836 119.386 131.52Z" fill="#D4D8E2"/>
<path d="M119.167 131.456C117.916 137.025 112.326 140.202 106.7 138.554C101.087 136.91 97.567 131.092 98.8139 125.558C100.061 120.025 105.611 116.845 111.224 118.454C116.855 120.067 120.418 125.892 119.167 131.456Z" fill="#D4D8E2"/>
<path opacity="0.8" d="M118.107 131.149C116.988 136.137 111.976 138.984 106.934 137.511C101.905 136.041 98.7457 130.823 99.8661 125.863C100.987 120.903 105.959 118.05 110.99 119.498C116.03 120.943 119.226 126.162 118.107 131.149Z" fill="#F9F9FB"/>
<path opacity="0.5" d="M108.394 135.87C108.094 134.588 108.36 134.084 108.873 129.768C109.637 123.361 109.329 122.159 109.031 121.376C108.728 120.578 108.123 119.401 106.781 118.148C102.933 118.731 99.73 121.514 98.8141 125.558C97.566 131.096 101.087 136.91 106.7 138.554C107.793 138.874 108.881 139.012 109.94 138.987C109.224 138.07 108.667 137.036 108.394 135.87Z" fill="#F9F9FB"/>
<mask id="mask3_5866_14441" style="mask-type:luminance" maskUnits="userSpaceOnUse" x="99" y="119" width="20" height="20">
<path d="M118.077 131.264C116.958 136.251 111.946 139.098 106.905 137.621C101.876 136.151 98.7164 130.933 99.8368 125.973C100.957 121.013 105.93 118.16 110.961 119.608C116 121.058 119.195 126.276 118.077 131.264Z" fill="white"/>
</mask>
<g mask="url(#mask3_5866_14441)">
<path d="M94.6463 141.029C94.4135 138.699 96.4342 135.677 97.5516 134.366C100.814 130.533 104.671 131.59 107.857 132.461C111.008 133.324 114.075 134.164 115.368 138.378C116.218 141.145 116.435 145.802 114.933 147.753C113.36 149.798 111.239 147.103 105.109 145.034C98.4681 142.792 94.9394 143.946 94.6463 141.029Z" fill="#D4D8E2"/>
<path d="M110.672 133.869C110.519 134.44 108.922 134.679 107.188 134.128C105.458 133.578 104.246 132.451 104.397 131.884C104.549 131.317 105.877 132.013 107.609 132.558C109.343 133.109 110.825 133.298 110.672 133.869Z" fill="#D4D8E2"/>
<path d="M107.435 128.535C106.958 128.384 107.169 132.05 105.319 131.963C105.14 131.956 105.056 132.169 105.184 132.298C105.581 132.695 106.366 133.286 107.795 133.742C108.727 134.037 109.502 133.904 109.92 133.781C110.063 133.737 110.098 133.556 109.986 133.449C109.52 133.007 109.009 131.9 109.918 129.404L107.435 128.535Z" fill="#EDEEF3"/>
<path d="M107.057 124.107C107.054 124.152 106.386 127.22 106.676 128.948C106.76 129.447 107.766 129.703 108.424 129.852C108.997 129.983 109.821 130.462 110.176 130.153C111.589 128.922 112.444 125.038 112.444 125.038C112.444 125.038 112.273 123.61 110.164 123.004C108.069 122.411 107.057 124.107 107.057 124.107Z" fill="#EDEEF3"/>
<path d="M107.107 125.885C107.107 125.885 106.806 125.246 106.413 125.055C106.02 124.864 105.475 125.833 105.848 126.69C106.221 127.548 107.022 127.182 107.022 127.182L107.107 125.885Z" fill="#EDEEF3"/>
<path d="M111.371 127.2C111.371 127.2 111.945 126.832 112.379 126.889C112.811 126.951 112.799 128.095 112.045 128.609C111.295 129.125 110.796 128.347 110.796 128.347L111.371 127.2Z" fill="#EDEEF3"/>
<path d="M113.311 124.595C112.79 125.811 111.998 126.855 111.912 127.091C111.793 127.417 111.629 127.573 111.423 127.545C111.217 127.517 112.023 125.189 111.834 125.047C111.649 124.907 108.202 123.657 107.861 124.069C107.514 124.484 107.012 126.744 106.834 126.02C106.834 126.02 106.723 125.859 106.635 125.21C106.579 124.809 106.489 123.774 106.591 122.953C106.656 122.44 106.803 122.008 107.08 121.873C107.807 121.529 113.971 121.453 113.732 123.175C113.665 123.647 113.507 124.135 113.311 124.595Z" fill="#B9BED0"/>
<path opacity="0.3" d="M113.311 124.595C112.79 125.811 111.998 126.855 111.912 127.091C111.793 127.417 111.629 127.573 111.423 127.545C111.217 127.517 112.023 125.189 111.834 125.047C111.649 124.907 108.202 123.657 107.861 124.069C107.514 124.484 107.012 126.744 106.834 126.02C106.834 126.02 106.723 125.859 106.634 125.21C106.578 124.809 106.489 123.774 106.591 122.953C106.709 123.071 106.926 123.156 107.337 123.062C108.208 122.856 109.004 123.101 110.18 123.788C111.259 124.417 112.573 124.946 113.311 124.595Z" fill="#B9BED0"/>
</g>
<path d="M131.498 86.3176C130.219 92.0058 124.511 95.2513 118.759 93.5651C113.029 91.8845 109.43 85.941 110.704 80.2878C111.979 74.6346 117.646 71.3874 123.381 73.0329C129.133 74.683 132.776 80.6336 131.498 86.3176Z" fill="#D4D8E2"/>
<path d="M131.279 86.2544C130.027 91.823 124.437 95.0003 118.812 93.3523C113.199 91.7078 109.679 85.8899 110.926 80.3563C112.173 74.8227 117.722 71.6436 123.336 73.252C128.967 74.865 132.53 80.69 131.279 86.2544Z" fill="#D4D8E2"/>
<path opacity="0.8" d="M130.219 85.9476C129.1 90.9351 124.088 93.7822 119.046 92.3087C114.017 90.8386 110.857 85.6208 111.978 80.6609C113.098 75.701 118.071 72.848 123.102 74.2957C128.142 75.7416 131.338 80.96 130.219 85.9476Z" fill="#F9F9FB"/>
<path opacity="0.5" d="M120.506 90.6684C120.206 89.3862 120.473 88.8818 120.985 84.5661C121.749 78.1595 121.441 76.9569 121.143 76.1742C120.84 75.3765 120.235 74.1986 118.893 72.9457C115.045 73.5291 111.842 76.312 110.926 80.3563C109.678 85.8942 113.199 91.7078 118.812 93.3524C119.905 93.6725 120.993 93.8098 122.052 93.7851C121.336 92.8678 120.779 91.8342 120.506 90.6684Z" fill="#F9F9FB"/>
<mask id="mask4_5866_14441" style="mask-type:luminance" maskUnits="userSpaceOnUse" x="111" y="74" width="20" height="19">
<path d="M130.188 86.0618C129.07 91.0494 124.058 93.8964 119.017 92.4187C113.987 90.9486 110.828 85.7308 111.949 80.7709C113.069 75.811 118.042 72.958 123.072 74.4057C128.112 75.8558 131.307 81.0742 130.188 86.0618Z" fill="white"/>
</mask>
<g mask="url(#mask4_5866_14441)">
<path d="M106.758 95.8271C106.525 93.4974 108.546 90.4747 109.663 89.1643C112.926 85.3316 116.783 86.3878 119.969 87.2594C123.12 88.1221 126.187 88.962 127.48 93.1763C128.33 95.9435 128.547 100.6 127.045 102.551C125.472 104.596 123.351 101.901 117.221 99.8322C110.58 97.5903 107.051 98.7442 106.758 95.8271Z" fill="#D4D8E2"/>
<path d="M122.784 88.6668C122.631 89.2379 121.034 89.4767 119.3 88.9258C117.57 88.3761 116.357 87.2486 116.509 86.6817C116.661 86.1148 117.989 86.8107 119.72 87.3562C121.455 87.907 122.937 88.0956 122.784 88.6668Z" fill="#D4D8E2"/>
<path d="M119.547 83.3329C119.07 83.1825 119.28 86.8484 117.431 86.7609C117.251 86.7537 117.167 86.9669 117.296 87.0965C117.693 87.4931 118.478 88.0843 119.906 88.5397C120.838 88.8348 121.613 88.7023 122.032 88.5787C122.175 88.5354 122.21 88.3543 122.098 88.2472C121.631 87.8048 121.121 86.6976 122.03 84.2023L119.547 83.3329Z" fill="#EDEEF3"/>
<path d="M119.169 78.9056C119.166 78.9501 118.498 82.0179 118.788 83.7462C118.872 84.2448 119.878 84.5008 120.536 84.65C121.109 84.7807 121.933 85.26 122.287 84.9514C123.701 83.7204 124.556 79.8366 124.556 79.8366C124.556 79.8366 124.385 78.4079 122.276 77.8019C120.181 77.2088 119.169 78.9056 119.169 78.9056Z" fill="#EDEEF3"/>
<path d="M119.218 80.6829C119.218 80.6829 118.918 80.0446 118.525 79.8531C118.132 79.6616 117.586 80.631 117.96 81.4883C118.333 82.3456 119.134 81.9798 119.134 81.9798L119.218 80.6829Z" fill="#EDEEF3"/>
<path d="M123.482 81.9977C123.482 81.9977 124.057 81.6301 124.49 81.6874C124.923 81.7488 124.911 82.8929 124.157 83.4072C123.406 83.9226 122.907 83.145 122.907 83.145L123.482 81.9977Z" fill="#EDEEF3"/>
<path d="M125.423 79.3932C124.902 80.6095 124.11 81.6533 124.024 81.8888C123.905 82.2151 123.741 82.3707 123.535 82.3428C123.329 82.3149 124.135 79.9867 123.946 79.8454C123.761 79.7053 120.314 78.4552 119.973 78.867C119.626 79.2819 119.124 81.5418 118.946 80.8185C118.946 80.8185 118.835 80.6573 118.746 80.0076C118.69 79.6072 118.601 78.5719 118.703 77.7513C118.767 77.2381 118.915 76.8061 119.191 76.6715C119.919 76.3268 126.083 76.2509 125.844 77.9734C125.776 78.4451 125.618 78.9333 125.423 79.3932Z" fill="#B9BED0"/>
<path opacity="0.3" d="M125.422 79.3932C124.901 80.6095 124.109 81.6533 124.024 81.8888C123.904 82.2151 123.74 82.3707 123.535 82.3428C123.329 82.3149 124.134 79.9867 123.945 79.8454C123.761 79.7053 120.314 78.4552 119.972 78.867C119.625 79.2819 119.124 81.5418 118.946 80.8185C118.946 80.8185 118.835 80.6572 118.746 80.0076C118.69 79.6072 118.6 78.5719 118.702 77.7513C118.82 77.8691 119.038 77.9545 119.448 77.8605C120.32 77.6542 121.116 77.8992 122.292 78.5862C123.37 79.2153 124.684 79.7442 125.422 79.3932Z" fill="#B9BED0"/>
</g>
<path d="M93.6505 21.7511C95.2254 26.2646 99.182 30.1251 102.466 30.3556C105.751 30.5861 107.133 27.1289 105.559 22.6154C103.984 18.1019 100.027 14.2414 96.7427 14.0109C93.4584 13.7804 92.0756 17.2376 93.6505 21.7511Z" fill="#FAB404"/>
</svg>
